<svg xmlns="http://www.w3.org/2000/svg" viewBox="0 0 234.04 62"><defs><style>.cls-1{fill:#9ca3af;}</style></defs><g id="Layer_2" data-name="Layer 2"><g id="Layer_1-2" data-name="Layer 1"><path class="cls-1" d="M93.57,22,80.44,45.34h5.38l2.69-5.09h14.72L106,45.34h6L98.77,22ZM90.82,36,96,26.56,101,36Zm28.72,9.3h5.4V22h-5.4Zm37.11-8.79a6.07,6.07,0,0,0,4-1.08A4.36,4.36,0,0,0,161.9,32V26.56a4.34,4.34,0,0,0-1.24-3.45,6.07,6.07,0,0,0-4-1.07H136.79v23.3h5.32V36.55h5.12l9.35,8.79h7.75l-10.71-8.79Zm-14.54-4V26.07h12.14a3.24,3.24,0,0,1,1.92.41,1.71,1.71,0,0,1,.52,1.42v2.8a1.73,1.73,0,0,1-.52,1.45,3.24,3.24,0,0,1-1.92.41Zm36.14,2.62h14.56v-4H178.25V26h18.36V22H172.85v23.3h24V41H178.25ZM229.19,22V38.8L211.6,22h-4.84v23.3h4.84V28.52l17.59,16.82H234V22Z"/><path class="cls-1" d="M62,17.41,48.53,23.67,60.38,1.61,38.33,13.47,44.59,0S14.73,12.34,7.27,19.8A24.7,24.7,0,1,0,42.2,54.73C51,45.89,62,17.41,62,17.41Z"/><path class="cls-1" d="M62,17.41,48.53,23.67,60.38,1.61,38.33,13.47,44.59,0S14.73,12.34,7.27,19.8A24.7,24.7,0,1,0,42.2,54.73C51,45.89,62,17.41,62,17.41Z"/></g></g></svg>
