<?xml version="1.0" encoding="UTF-8"?><svg id="Layer_2" xmlns="http://www.w3.org/2000/svg" xmlns:xlink="http://www.w3.org/1999/xlink" viewBox="0 0 400 400"><defs><style>.cls-1{fill:none;stroke:#fff;stroke-linecap:round;stroke-linejoin:round;stroke-width:14px;}.cls-2{fill:#ee6f2a;}.cls-3{fill:url(#linear-gradient);opacity:.3;}</style><linearGradient id="linear-gradient" x1="200" y1="0" x2="200" y2="400" gradientUnits="userSpaceOnUse"><stop offset="0" stop-color="#fff"/><stop offset="1" stop-color="#ee6f2a" stop-opacity="0"/></linearGradient></defs><g id="Layer_1-2"><g><rect class="cls-2" width="400" height="400"/><rect class="cls-3" width="400" height="400"/></g><path class="cls-1" d="m223.84,138.23c19.09,3.73,34.02,18.65,37.75,37.75m-37.75-75.97c39.94,4.44,71.49,35.94,75.97,75.88m-9.56,76.26v28.67c.04,10.56-8.48,19.15-19.04,19.19-.6,0-1.2-.02-1.8-.08-29.41-3.2-57.65-13.24-82.47-29.34-23.09-14.67-42.67-34.25-57.34-57.34-16.15-24.93-26.2-53.32-29.34-82.86-.95-10.51,6.8-19.81,17.32-20.76.57-.05,1.13-.08,1.7-.08h28.67c9.59-.09,17.77,6.94,19.11,16.44,1.21,9.17,3.45,18.18,6.69,26.85,2.63,6.98.95,14.86-4.3,20.16l-12.14,12.14c13.6,23.93,33.41,43.73,57.34,57.34l12.14-12.14c5.31-5.25,13.18-6.93,20.16-4.3,8.67,3.24,17.68,5.48,26.85,6.69,9.61,1.36,16.68,9.7,16.44,19.4Z"/></g></svg>