<?xml version="1.0" encoding="UTF-8"?>
<svg id="Layer_2" xmlns="http://www.w3.org/2000/svg" version="1.1" xmlns:xlink="http://www.w3.org/1999/xlink" viewBox="0 0 400 400">
  <!-- Generator: Adobe Illustrator 29.1.0, SVG Export Plug-In . SVG Version: 2.1.0 Build 142)  -->
  <defs>
    <style>
      .st0 {
        fill: url(#linear-gradient);
        isolation: isolate;
        opacity: .3;
      }

      .st1 {
        stroke-width: 14px;
      }

      .st1, .st2 {
        fill: none;
        stroke: #fff;
        stroke-linecap: round;
        stroke-linejoin: round;
      }

      .st2 {
        stroke-width: 2px;
      }

      .st3 {
        fill: #ee6f2a;
      }
    </style>
    <linearGradient id="linear-gradient" x1="200" y1="678" x2="200" y2="1078" gradientTransform="translate(0 -678)" gradientUnits="userSpaceOnUse">
      <stop offset="0" stop-color="#fff"/>
      <stop offset="1" stop-color="#ee6f2a" stop-opacity="0"/>
    </linearGradient>
  </defs>
  <g>
    <rect class="st3" width="400" height="400"/>
    <rect class="st0" width="400" height="400"/>
  </g>
  <g>
    <polyline class="st1" points="280 200 280 300 120 300 120 200"/>
    <rect class="st1" x="100" y="150" width="200" height="50"/>
    <line class="st1" x1="200" y1="300" x2="200" y2="150"/>
    <path class="st1" d="M200,150h-45c-13.8,0-25-11.2-25-25s11.2-25,25-25c35,0,45,50,45,50Z"/>
    <path class="st1" d="M200,150h45c13.8,0,25-11.2,25-25s-11.2-25-25-25c-35,0-45,50-45,50Z"/>
  </g>
  <g>
    <path class="st2" d="M-154.5,174.5h16c1.1,0,2,.9,2,2v12c0,1.1-.9,2-2,2h-16c-1.1,0-2-.9-2-2v-12c0-1.1.9-2,2-2Z"/>
    <polyline class="st2" points="-136.5 176.5 -146.5 183.5 -156.5 176.5"/>
  </g>
</svg>