<?xml version="1.0" encoding="UTF-8"?>
<svg id="Layer_2" data-name="Layer 2" xmlns="http://www.w3.org/2000/svg" xmlns:xlink="http://www.w3.org/1999/xlink" viewBox="0 0 400 400">
  <defs>
    <style>
      .cls-1 {
        fill: url(#linear-gradient);
        isolation: isolate;
        opacity: .3;
      }

      .cls-2 {
        fill: none;
        stroke: #fff;
        stroke-linecap: round;
        stroke-linejoin: round;
        stroke-width: 14px;
      }

      .cls-3 {
        fill: #ee6f2a;
      }
    </style>
    <linearGradient id="linear-gradient" x1="200" y1="402" x2="200" y2="2" gradientTransform="translate(0 402) scale(1 -1)" gradientUnits="userSpaceOnUse">
      <stop offset="0" stop-color="#fff"/>
      <stop offset="1" stop-color="#ee6f2a" stop-opacity="0"/>
    </linearGradient>
  </defs>
  <g>
    <rect class="cls-3" width="400" height="400"/>
    <rect class="cls-1" width="400" height="400"/>
  </g>
  <g>
    <polyline class="cls-2" points="280 200 280 300 120 300 120 200"/>
    <rect class="cls-2" x="100" y="150" width="200" height="50"/>
    <line class="cls-2" x1="200" y1="300" x2="200" y2="150"/>
    <path class="cls-2" d="M200,150h-45c-13.81,0-25-11.19-25-25s11.19-25,25-25c35,0,45,50,45,50Z"/>
    <path class="cls-2" d="M200,150h45c13.81,0,25-11.19,25-25s-11.19-25-25-25c-35,0-45,50-45,50Z"/>
  </g>
</svg>