<?xml version="1.0" encoding="UTF-8"?><svg id="Layer_2" xmlns="http://www.w3.org/2000/svg" xmlns:xlink="http://www.w3.org/1999/xlink" viewBox="0 0 400 400"><defs><style>.cls-1{fill:none;stroke:#fff;stroke-linecap:round;stroke-linejoin:round;stroke-width:14px;}.cls-2{fill:#ee6f2a;}.cls-3{fill:url(#linear-gradient);opacity:.3;}</style><linearGradient id="linear-gradient" x1="200" y1="0" x2="200" y2="400" gradientUnits="userSpaceOnUse"><stop offset="0" stop-color="#fff"/><stop offset="1" stop-color="#ee6f2a" stop-opacity="0"/></linearGradient></defs><g id="Layer_1-2"><g><g><rect class="cls-2" width="400" height="400"/><rect class="cls-3" width="400" height="400"/></g><path class="cls-1" d="m173.84,271.46c-47.56,14.27-47.56-23.78-66.58-28.54m133.16,57.07v-36.81c.72-9.17-2.53-18.22-8.94-24.83,29.87-3.33,61.26-14.65,61.26-66.58,0-13.28-5.11-26.05-14.27-35.67,4.34-11.62,4.03-24.46-.86-35.86,0,0-11.22-3.33-37.19,14.08-21.8-5.91-44.78-5.91-66.58,0-25.97-17.41-37.19-14.08-37.19-14.08-4.89,11.4-5.19,24.24-.86,35.86-9.23,9.69-14.34,22.58-14.27,35.95,0,51.55,31.39,62.87,61.26,66.58-6.33,6.54-9.58,15.46-8.94,24.54v36.81"/></g></g></svg>