<?xml version="1.0" encoding="UTF-8"?><svg id="Layer_2" xmlns="http://www.w3.org/2000/svg" xmlns:xlink="http://www.w3.org/1999/xlink" viewBox="0 0 400 400"><defs><style>.cls-1{fill:none;stroke:#fff;stroke-linecap:round;stroke-linejoin:round;stroke-width:14px;}.cls-2{fill:#ee6f2a;}.cls-3{fill:url(#linear-gradient);opacity:.3;}</style><linearGradient id="linear-gradient" x1="200" y1="0" x2="200" y2="400" gradientUnits="userSpaceOnUse"><stop offset="0" stop-color="#fff"/><stop offset="1" stop-color="#ee6f2a" stop-opacity="0"/></linearGradient></defs><g id="Layer_1-2"><rect class="cls-2" width="400" height="400"/><rect class="cls-3" width="400" height="400"/><g><path class="cls-1" d="m179.87,210.07c16.65,22.26,48.19,26.81,70.46,10.16,1.93-1.44,3.75-3.02,5.45-4.72l30.2-30.2c19.31-20,18.76-51.86-1.24-71.17-19.51-18.84-50.43-18.84-69.94,0l-17.32,17.21"/><path class="cls-1" d="m220.13,189.93c-16.65-22.26-48.19-26.81-70.46-10.16-1.93,1.44-3.75,3.02-5.45,4.72l-30.2,30.2c-19.31,20-18.76,51.86,1.24,71.17,19.51,18.84,50.43,18.84,69.94,0l17.21-17.21"/></g></g></svg>