<?xml version="1.0" encoding="UTF-8"?><svg id="Layer_2" xmlns="http://www.w3.org/2000/svg" xmlns:xlink="http://www.w3.org/1999/xlink" viewBox="0 0 400 400"><defs><style>.cls-1{fill:none;stroke:#fff;stroke-linecap:round;stroke-linejoin:round;stroke-width:14px;}.cls-2{fill:#ee6f2a;}.cls-3{fill:url(#linear-gradient);opacity:.3;}</style><linearGradient id="linear-gradient" x1="200" y1="0" x2="200" y2="400" gradientUnits="userSpaceOnUse"><stop offset="0" stop-color="#fff"/><stop offset="1" stop-color="#ee6f2a" stop-opacity="0"/></linearGradient></defs><g id="Layer_1-2"><g><g><rect class="cls-2" width="400" height="400"/><rect class="cls-3" width="400" height="400"/></g><g><line class="cls-1" x1="244.83" y1="173.69" x2="155.17" y2="121.99"/><path class="cls-1" d="m289.65,239.44v-79.69c0-7.11-3.8-13.68-9.96-17.23l-69.73-39.84c-6.16-3.56-13.76-3.56-19.92,0l-69.73,39.84c-6.16,3.56-9.95,10.12-9.96,17.23v79.69c0,7.11,3.8,13.68,9.96,17.23l69.73,39.84c6.16,3.56,13.76,3.56,19.92,0l69.73-39.84c6.16-3.56,9.95-10.12,9.96-17.23Z"/><polyline class="cls-1" points="113.04 149.39 200 199.69 286.96 149.39"/><line class="cls-1" x1="200" y1="300" x2="200" y2="199.59"/></g></g></g></svg>