<?xml version="1.0" encoding="UTF-8"?><svg id="Layer_2" xmlns="http://www.w3.org/2000/svg" xmlns:xlink="http://www.w3.org/1999/xlink" viewBox="0 0 400 400"><defs><style>.cls-1{fill:none;stroke:#fff;stroke-linecap:round;stroke-linejoin:round;stroke-width:14px;}.cls-2{fill:#ee6f2a;}.cls-3{fill:url(#linear-gradient);opacity:.3;}</style><linearGradient id="linear-gradient" x1="200" y1="0" x2="200" y2="400" gradientUnits="userSpaceOnUse"><stop offset="0" stop-color="#fff"/><stop offset="1" stop-color="#ee6f2a" stop-opacity="0"/></linearGradient></defs><g id="Layer_1-2"><g><g><rect class="cls-2" width="400" height="400"/><rect class="cls-3" width="400" height="400"/></g><g><circle class="cls-1" cx="200" cy="200" r="27.27"/><path class="cls-1" d="m267.27,227.27c-2.48,5.61-1.29,12.16,3,16.55l.55.55c7.1,7.1,7.11,18.61.01,25.71h-.01c-7.1,7.12-18.61,7.13-25.71.03h-.01s-.55-.56-.55-.56c-4.38-4.29-10.94-5.48-16.55-3-5.5,2.36-9.07,7.75-9.09,13.73v1.55c0,10.04-8.14,18.18-18.18,18.18s-18.18-8.14-18.18-18.18v-.82c-.14-6.16-4.04-11.6-9.82-13.73-5.61-2.48-12.16-1.29-16.55,3l-.55.55c-7.1,7.1-18.61,7.11-25.71.01,0,0,0,0-.01-.01-7.1-7.1-7.11-18.61-.01-25.71,0,0,0,0,.01-.01l.55-.55c4.29-4.38,5.48-10.94,3-16.55-2.36-5.5-7.75-9.07-13.73-9.09h-1.55c-10.04,0-18.18-8.14-18.18-18.18s8.14-18.18,18.18-18.18h.82c6.16-.14,11.6-4.04,13.73-9.82,2.48-5.61,1.29-12.16-3-16.55l-.55-.55c-7.1-7.1-7.11-18.61-.01-25.71,0,0,0,0,.01-.01,7.1-7.1,18.61-7.11,25.71-.01,0,0,0,0,.01.01l.55.55c4.38,4.29,10.94,5.48,16.55,3h.73c5.5-2.36,9.07-7.75,9.09-13.73v-1.55c0-10.04,8.14-18.18,18.18-18.18s18.18,8.14,18.18,18.18v.82c.02,5.98,3.6,11.37,9.09,13.73,5.61,2.48,12.16,1.29,16.55-3l.55-.55c7.1-7.1,18.61-7.11,25.71-.01,0,0,0,0,.01.01,7.1,7.1,7.11,18.61.01,25.71,0,0,0,0-.01.01l-.55.55c-4.29,4.38-5.48,10.94-3,16.55v.73c2.36,5.5,7.75,9.07,13.73,9.09h1.55c10.04,0,18.18,8.14,18.18,18.18s-8.14,18.18-18.18,18.18h-.82c-5.98.02-11.37,3.6-13.73,9.09Z"/></g></g></g></svg>